<mxfile host="app.diagrams.net" modified="2021-09-25T14:41:51.681Z" agent="5.0 (X11; Linux x86_64) AppleWebKit/537.36 (KHTML, like Gecko) Chrome/93.0.4577.82 Safari/537.36" etag="KisPUKhVTntYqePVl_0N" version="15.3.2" type="github">
  <diagram id="C5RBs43oDa-KdzZeNtuy" name="Page-1">
    <mxGraphModel dx="1422" dy="1935" grid="1" gridSize="10" guides="1" tooltips="1" connect="1" arrows="1" fold="1" page="1" pageScale="1" pageWidth="827" pageHeight="1169" math="0" shadow="0">
      <root>
        <mxCell id="WIyWlLk6GJQsqaUBKTNV-0" />
        <mxCell id="WIyWlLk6GJQsqaUBKTNV-1" parent="WIyWlLk6GJQsqaUBKTNV-0" />
        <mxCell id="zkfFHV4jXpPFQw0GAbJ--0" value="UserAccount" style="swimlane;fontStyle=2;align=center;verticalAlign=top;childLayout=stackLayout;horizontal=1;startSize=26;horizontalStack=0;resizeParent=1;resizeLast=0;collapsible=1;marginBottom=0;rounded=0;shadow=0;strokeWidth=1;fillColor=#21C0A5;strokeColor=#006658;fontColor=#5C5C5C;" parent="WIyWlLk6GJQsqaUBKTNV-1" vertex="1">
          <mxGeometry x="50" y="80" width="220" height="326" as="geometry">
            <mxRectangle x="230" y="140" width="160" height="26" as="alternateBounds" />
          </mxGeometry>
        </mxCell>
        <mxCell id="yMmMfw-yELfP6yZ7qOpB-13" value="id&lt;br style=&quot;font-size: 22px;&quot;&gt;    name&lt;br style=&quot;font-size: 22px;&quot;&gt;    email&lt;br style=&quot;font-size: 22px;&quot;&gt;    password&lt;br style=&quot;font-size: 22px;&quot;&gt;    active&lt;br style=&quot;font-size: 22px;&quot;&gt;    remember&lt;br style=&quot;font-size: 22px;&quot;&gt;    registered_on&lt;br style=&quot;font-size: 22px;&quot;&gt;    admin&lt;br style=&quot;font-size: 22px;&quot;&gt;    confirmed&lt;br style=&quot;font-size: 22px;&quot;&gt;    confirmed_on" style="text;whiteSpace=wrap;html=1;fontSize=22;fontFamily=Courier New;fontColor=#5C5C5C;" parent="zkfFHV4jXpPFQw0GAbJ--0" vertex="1">
          <mxGeometry y="26" width="220" height="300" as="geometry" />
        </mxCell>
        <mxCell id="yMmMfw-yELfP6yZ7qOpB-36" style="edgeStyle=orthogonalEdgeStyle;curved=0;rounded=1;sketch=0;orthogonalLoop=1;jettySize=auto;html=1;entryX=0.87;entryY=-0.009;entryDx=0;entryDy=0;entryPerimeter=0;fontSize=26;fontColor=#5C5C5C;strokeColor=#006658;fillColor=#21C0A5;" parent="WIyWlLk6GJQsqaUBKTNV-1" source="yMmMfw-yELfP6yZ7qOpB-17" target="yMmMfw-yELfP6yZ7qOpB-28" edge="1">
          <mxGeometry relative="1" as="geometry" />
        </mxCell>
        <mxCell id="yMmMfw-yELfP6yZ7qOpB-40" style="edgeStyle=orthogonalEdgeStyle;curved=0;rounded=1;sketch=0;orthogonalLoop=1;jettySize=auto;html=1;fontSize=26;fontColor=#5C5C5C;strokeColor=#006658;fillColor=#21C0A5;" parent="WIyWlLk6GJQsqaUBKTNV-1" source="yMmMfw-yELfP6yZ7qOpB-17" edge="1">
          <mxGeometry relative="1" as="geometry">
            <mxPoint x="300" y="180" as="targetPoint" />
          </mxGeometry>
        </mxCell>
        <mxCell id="yMmMfw-yELfP6yZ7qOpB-17" value="UserOpponent" style="swimlane;fontStyle=2;align=center;verticalAlign=top;childLayout=stackLayout;horizontal=1;startSize=26;horizontalStack=0;resizeParent=1;resizeLast=0;collapsible=1;marginBottom=0;rounded=0;shadow=0;strokeWidth=1;fillColor=#21C0A5;strokeColor=#006658;fontColor=#5C5C5C;" parent="WIyWlLk6GJQsqaUBKTNV-1" vertex="1">
          <mxGeometry x="435" y="111.5" width="210" height="263" as="geometry">
            <mxRectangle x="230" y="140" width="160" height="26" as="alternateBounds" />
          </mxGeometry>
        </mxCell>
        <mxCell id="yMmMfw-yELfP6yZ7qOpB-20" value="&lt;div style=&quot;text-align: left ; font-size: 22px&quot;&gt;&lt;font style=&quot;font-size: 22px&quot;&gt;&amp;nbsp; &amp;nbsp; id&lt;/font&gt;&lt;/div&gt;&lt;div style=&quot;text-align: left ; font-size: 22px&quot;&gt;&lt;font style=&quot;font-size: 22px&quot;&gt;&amp;nbsp; &amp;nbsp; opponent_category&lt;/font&gt;&lt;/div&gt;&lt;div style=&quot;text-align: left ; font-size: 22px&quot;&gt;&lt;font style=&quot;font-size: 22px&quot;&gt;&amp;nbsp; &amp;nbsp; opponent_city&lt;/font&gt;&lt;/div&gt;&lt;div style=&quot;text-align: left ; font-size: 22px&quot;&gt;&lt;font style=&quot;font-size: 22px&quot;&gt;&amp;nbsp; &amp;nbsp; opponent_district&lt;/font&gt;&lt;/div&gt;&lt;div style=&quot;text-align: left ; font-size: 22px&quot;&gt;&lt;font style=&quot;font-size: 22px&quot;&gt;&amp;nbsp; &amp;nbsp; opponent_date&lt;/font&gt;&lt;/div&gt;&lt;div style=&quot;text-align: left ; font-size: 22px&quot;&gt;&lt;font style=&quot;font-size: 22px&quot;&gt;&amp;nbsp; &amp;nbsp; opponent_phone&lt;/font&gt;&lt;/div&gt;&lt;div style=&quot;text-align: left ; font-size: 22px&quot;&gt;&lt;font style=&quot;font-size: 22px&quot;&gt;&amp;nbsp; &amp;nbsp; user_account_id&lt;/font&gt;&lt;/div&gt;&lt;div style=&quot;text-align: left ; font-size: 22px&quot;&gt;&lt;font style=&quot;font-size: 22px&quot;&gt;&amp;nbsp;&amp;nbsp;&lt;/font&gt;&lt;/div&gt;&lt;div style=&quot;text-align: left ; font-size: 22px&quot;&gt;&lt;font style=&quot;font-size: 22px&quot;&gt;&amp;nbsp; &amp;nbsp;&lt;/font&gt;&lt;/div&gt;&lt;div style=&quot;text-align: left&quot;&gt;&lt;br&gt;&lt;/div&gt;" style="text;html=1;align=center;verticalAlign=middle;resizable=0;points=[];autosize=1;strokeColor=none;fontColor=#5C5C5C;" parent="WIyWlLk6GJQsqaUBKTNV-1" vertex="1">
          <mxGeometry x="415" y="205" width="230" height="150" as="geometry" />
        </mxCell>
        <mxCell id="yMmMfw-yELfP6yZ7qOpB-28" value="OfferOpponent" style="swimlane;fontStyle=2;align=center;verticalAlign=top;childLayout=stackLayout;horizontal=1;startSize=26;horizontalStack=0;resizeParent=1;resizeLast=0;collapsible=1;marginBottom=0;rounded=0;shadow=0;strokeWidth=1;fillColor=#21C0A5;strokeColor=#006658;fontColor=#5C5C5C;" parent="WIyWlLk6GJQsqaUBKTNV-1" vertex="1">
          <mxGeometry x="144" y="480" width="270" height="350" as="geometry">
            <mxRectangle x="230" y="140" width="160" height="26" as="alternateBounds" />
          </mxGeometry>
        </mxCell>
        <mxCell id="yMmMfw-yELfP6yZ7qOpB-30" value="id&lt;br&gt;offer_name&lt;br style=&quot;font-size: 26px&quot;&gt;    offer_email&lt;br style=&quot;font-size: 26px&quot;&gt;    offer_phone&lt;br style=&quot;font-size: 26px&quot;&gt;    offer_category&lt;br style=&quot;font-size: 26px&quot;&gt;    offer_city&lt;br style=&quot;font-size: 26px&quot;&gt;    offer_district&lt;br style=&quot;font-size: 26px&quot;&gt;    offer_date&lt;br style=&quot;font-size: 26px&quot;&gt;    offer_accept&amp;nbsp;&lt;br style=&quot;font-size: 26px&quot;&gt;    offer_message" style="text;whiteSpace=wrap;html=1;fontSize=26;fontColor=#5C5C5C;" parent="yMmMfw-yELfP6yZ7qOpB-28" vertex="1">
          <mxGeometry y="26" width="270" height="154" as="geometry" />
        </mxCell>
        <mxCell id="yMmMfw-yELfP6yZ7qOpB-31" style="edgeStyle=orthogonalEdgeStyle;curved=0;rounded=1;sketch=0;orthogonalLoop=1;jettySize=auto;html=1;fontSize=26;fontColor=#5C5C5C;strokeColor=#006658;fillColor=#21C0A5;" parent="WIyWlLk6GJQsqaUBKTNV-1" source="yMmMfw-yELfP6yZ7qOpB-30" edge="1">
          <mxGeometry relative="1" as="geometry">
            <mxPoint x="100" y="430" as="targetPoint" />
          </mxGeometry>
        </mxCell>
        <mxCell id="yMmMfw-yELfP6yZ7qOpB-32" style="edgeStyle=orthogonalEdgeStyle;curved=0;rounded=1;sketch=0;orthogonalLoop=1;jettySize=auto;html=1;fontSize=26;fontColor=#5C5C5C;strokeColor=#006658;fillColor=#21C0A5;" parent="WIyWlLk6GJQsqaUBKTNV-1" source="yMmMfw-yELfP6yZ7qOpB-13" edge="1">
          <mxGeometry relative="1" as="geometry">
            <mxPoint x="230" y="464" as="targetPoint" />
          </mxGeometry>
        </mxCell>
        <mxCell id="yMmMfw-yELfP6yZ7qOpB-33" style="edgeStyle=orthogonalEdgeStyle;curved=0;rounded=1;sketch=0;orthogonalLoop=1;jettySize=auto;html=1;fontSize=26;fontColor=#5C5C5C;strokeColor=#006658;fillColor=#21C0A5;" parent="WIyWlLk6GJQsqaUBKTNV-1" source="yMmMfw-yELfP6yZ7qOpB-30" edge="1">
          <mxGeometry relative="1" as="geometry">
            <mxPoint x="550" y="420" as="targetPoint" />
          </mxGeometry>
        </mxCell>
        <mxCell id="yMmMfw-yELfP6yZ7qOpB-39" style="edgeStyle=orthogonalEdgeStyle;curved=0;rounded=1;sketch=0;orthogonalLoop=1;jettySize=auto;html=1;fontSize=26;fontColor=#5C5C5C;strokeColor=#006658;fillColor=#21C0A5;" parent="WIyWlLk6GJQsqaUBKTNV-1" source="yMmMfw-yELfP6yZ7qOpB-13" edge="1">
          <mxGeometry relative="1" as="geometry">
            <mxPoint x="360" y="256" as="targetPoint" />
          </mxGeometry>
        </mxCell>
        <mxCell id="yMmMfw-yELfP6yZ7qOpB-41" value="Role" style="swimlane;fontStyle=2;align=center;verticalAlign=top;childLayout=stackLayout;horizontal=1;startSize=26;horizontalStack=0;resizeParent=1;resizeLast=0;collapsible=1;marginBottom=0;rounded=0;shadow=0;strokeWidth=1;fillColor=#21C0A5;strokeColor=#006658;fontColor=#5C5C5C;labelBorderColor=none;" parent="WIyWlLk6GJQsqaUBKTNV-1" vertex="1">
          <mxGeometry x="660" y="-6" width="210" height="166" as="geometry">
            <mxRectangle x="230" y="140" width="160" height="26" as="alternateBounds" />
          </mxGeometry>
        </mxCell>
        <mxCell id="yMmMfw-yELfP6yZ7qOpB-42" value="&lt;pre style=&quot;font-family: &amp;quot;jetbrains mono&amp;quot;, monospace; font-size: 21px;&quot;&gt;id&lt;br&gt;name&lt;br&gt;description&lt;/pre&gt;" style="text;html=1;align=left;verticalAlign=middle;resizable=0;points=[];autosize=1;strokeColor=none;fontSize=26;fontColor=#5C5C5C;" parent="yMmMfw-yELfP6yZ7qOpB-41" vertex="1">
          <mxGeometry y="26" width="210" height="140" as="geometry" />
        </mxCell>
        <mxCell id="yMmMfw-yELfP6yZ7qOpB-43" style="edgeStyle=orthogonalEdgeStyle;curved=0;rounded=1;sketch=0;orthogonalLoop=1;jettySize=auto;html=1;fontSize=26;fontColor=#5C5C5C;strokeColor=#006658;fillColor=#21C0A5;" parent="WIyWlLk6GJQsqaUBKTNV-1" source="yMmMfw-yELfP6yZ7qOpB-42" edge="1">
          <mxGeometry relative="1" as="geometry">
            <mxPoint x="290" y="90" as="targetPoint" />
          </mxGeometry>
        </mxCell>
        <mxCell id="yMmMfw-yELfP6yZ7qOpB-44" value="User" style="swimlane;fontStyle=2;align=center;verticalAlign=top;childLayout=stackLayout;horizontal=1;startSize=26;horizontalStack=0;resizeParent=1;resizeLast=0;collapsible=1;marginBottom=0;rounded=0;shadow=0;strokeWidth=1;fillColor=#21C0A5;strokeColor=#006658;fontColor=#5C5C5C;" parent="WIyWlLk6GJQsqaUBKTNV-1" vertex="1">
          <mxGeometry x="660" y="480" width="300" height="380" as="geometry">
            <mxRectangle x="230" y="140" width="160" height="26" as="alternateBounds" />
          </mxGeometry>
        </mxCell>
        <mxCell id="yMmMfw-yELfP6yZ7qOpB-46" value="id&lt;br style=&quot;font-size: 29px;&quot;&gt;    full_name&lt;br style=&quot;font-size: 29px;&quot;&gt;    email&lt;br style=&quot;font-size: 29px;&quot;&gt;    phone&lt;br style=&quot;font-size: 29px;&quot;&gt;    address&lt;br style=&quot;font-size: 29px;&quot;&gt;    address2&lt;br style=&quot;font-size: 29px;&quot;&gt;    city&lt;br style=&quot;font-size: 29px;&quot;&gt;    state&lt;br style=&quot;font-size: 29px;&quot;&gt;    zip_code&lt;br style=&quot;font-size: 29px;&quot;&gt;    order_id" style="text;whiteSpace=wrap;html=1;fontSize=29;fontColor=#5C5C5C;" parent="yMmMfw-yELfP6yZ7qOpB-44" vertex="1">
          <mxGeometry y="26" width="300" height="330" as="geometry" />
        </mxCell>
        <mxCell id="yMmMfw-yELfP6yZ7qOpB-47" value="Order" style="swimlane;fontStyle=2;align=center;verticalAlign=top;childLayout=stackLayout;horizontal=1;startSize=26;horizontalStack=0;resizeParent=1;resizeLast=0;collapsible=1;marginBottom=0;rounded=0;shadow=0;strokeWidth=1;fillColor=#21C0A5;strokeColor=#006658;fontColor=#5C5C5C;" parent="WIyWlLk6GJQsqaUBKTNV-1" vertex="1">
          <mxGeometry x="1110" y="550" width="300" height="380" as="geometry">
            <mxRectangle x="230" y="140" width="160" height="26" as="alternateBounds" />
          </mxGeometry>
        </mxCell>
        <mxCell id="yMmMfw-yELfP6yZ7qOpB-48" value="&lt;pre style=&quot;background-color: rgb(255, 255, 255); font-family: &amp;quot;jetbrains mono&amp;quot;, monospace; font-size: 30px;&quot;&gt;id&lt;br style=&quot;font-size: 30px;&quot;&gt;name_product&lt;br style=&quot;font-size: 30px;&quot;&gt;print&lt;br style=&quot;font-size: 30px;&quot;&gt;color&lt;br style=&quot;font-size: 30px;&quot;&gt;size&lt;br style=&quot;font-size: 30px;&quot;&gt;sex&lt;br style=&quot;font-size: 30px;&quot;&gt;quantity&lt;br style=&quot;font-size: 30px;&quot;&gt;order_total&lt;br style=&quot;font-size: 30px;&quot;&gt;&lt;/pre&gt;" style="text;whiteSpace=wrap;html=1;fontSize=30;fontColor=#5C5C5C;" parent="yMmMfw-yELfP6yZ7qOpB-47" vertex="1">
          <mxGeometry y="26" width="300" height="330" as="geometry" />
        </mxCell>
        <mxCell id="yMmMfw-yELfP6yZ7qOpB-49" style="edgeStyle=orthogonalEdgeStyle;curved=0;rounded=1;sketch=0;orthogonalLoop=1;jettySize=auto;html=1;fontSize=30;fontColor=#5C5C5C;strokeColor=#006658;fillColor=#21C0A5;" parent="WIyWlLk6GJQsqaUBKTNV-1" source="yMmMfw-yELfP6yZ7qOpB-46" edge="1">
          <mxGeometry relative="1" as="geometry">
            <mxPoint x="1090" y="671" as="targetPoint" />
          </mxGeometry>
        </mxCell>
        <mxCell id="yMmMfw-yELfP6yZ7qOpB-50" style="edgeStyle=orthogonalEdgeStyle;curved=0;rounded=1;sketch=0;orthogonalLoop=1;jettySize=auto;html=1;fontSize=30;fontColor=#5C5C5C;strokeColor=#006658;fillColor=#21C0A5;" parent="WIyWlLk6GJQsqaUBKTNV-1" source="yMmMfw-yELfP6yZ7qOpB-48" edge="1">
          <mxGeometry relative="1" as="geometry">
            <mxPoint x="970" y="741" as="targetPoint" />
          </mxGeometry>
        </mxCell>
        <mxCell id="yMmMfw-yELfP6yZ7qOpB-51" value="Product&#xa;" style="swimlane;fontStyle=2;align=center;verticalAlign=top;childLayout=stackLayout;horizontal=1;startSize=26;horizontalStack=0;resizeParent=1;resizeLast=0;collapsible=1;marginBottom=0;rounded=0;shadow=0;strokeWidth=1;fillColor=#21C0A5;strokeColor=#006658;fontColor=#5C5C5C;" parent="WIyWlLk6GJQsqaUBKTNV-1" vertex="1">
          <mxGeometry x="625" y="1070" width="215" height="290" as="geometry">
            <mxRectangle x="230" y="140" width="160" height="26" as="alternateBounds" />
          </mxGeometry>
        </mxCell>
        <mxCell id="yMmMfw-yELfP6yZ7qOpB-57" style="edgeStyle=orthogonalEdgeStyle;curved=0;rounded=1;sketch=0;orthogonalLoop=1;jettySize=auto;html=1;fontSize=25;fontColor=#5C5C5C;strokeColor=#006658;fillColor=#21C0A5;" parent="WIyWlLk6GJQsqaUBKTNV-1" source="yMmMfw-yELfP6yZ7qOpB-53" edge="1">
          <mxGeometry relative="1" as="geometry">
            <mxPoint x="970" y="1230" as="targetPoint" />
          </mxGeometry>
        </mxCell>
        <mxCell id="yMmMfw-yELfP6yZ7qOpB-53" value="id&lt;br&gt;    name&lt;br&gt;    price&lt;br&gt;    is_new&lt;br&gt;    add&lt;br&gt;    deleted" style="text;whiteSpace=wrap;html=1;fontSize=30;fontColor=#5C5C5C;" parent="WIyWlLk6GJQsqaUBKTNV-1" vertex="1">
          <mxGeometry x="640" y="1110" width="200" height="240" as="geometry" />
        </mxCell>
        <mxCell id="yMmMfw-yELfP6yZ7qOpB-54" value="TShirt" style="swimlane;fontStyle=2;align=center;verticalAlign=top;childLayout=stackLayout;horizontal=1;startSize=26;horizontalStack=0;resizeParent=1;resizeLast=0;collapsible=1;marginBottom=0;rounded=0;shadow=0;strokeWidth=1;fillColor=#21C0A5;strokeColor=#006658;fontColor=#5C5C5C;" parent="WIyWlLk6GJQsqaUBKTNV-1" vertex="1">
          <mxGeometry x="980" y="1030" width="190" height="296" as="geometry">
            <mxRectangle x="230" y="140" width="160" height="26" as="alternateBounds" />
          </mxGeometry>
        </mxCell>
        <mxCell id="yMmMfw-yELfP6yZ7qOpB-55" value="&lt;pre style=&quot;background-color: rgb(255, 255, 255); font-family: &amp;quot;jetbrains mono&amp;quot;, monospace; font-size: 25px;&quot;&gt;id&lt;br style=&quot;font-size: 25px;&quot;&gt;name&lt;br style=&quot;font-size: 25px;&quot;&gt;color&lt;br style=&quot;font-size: 25px;&quot;&gt;size&lt;br style=&quot;font-size: 25px;&quot;&gt;sex&lt;br style=&quot;font-size: 25px;&quot;&gt;quantity&lt;br style=&quot;font-size: 25px;&quot;&gt;product_id&lt;/pre&gt;" style="text;html=1;align=left;verticalAlign=middle;resizable=0;points=[];autosize=1;strokeColor=none;fontSize=25;fontColor=#5C5C5C;" parent="yMmMfw-yELfP6yZ7qOpB-54" vertex="1">
          <mxGeometry y="26" width="190" height="270" as="geometry" />
        </mxCell>
        <mxCell id="yMmMfw-yELfP6yZ7qOpB-58" style="edgeStyle=orthogonalEdgeStyle;curved=0;rounded=1;sketch=0;orthogonalLoop=1;jettySize=auto;html=1;fontSize=25;fontColor=#5C5C5C;strokeColor=#006658;fillColor=#21C0A5;" parent="WIyWlLk6GJQsqaUBKTNV-1" source="yMmMfw-yELfP6yZ7qOpB-55" edge="1">
          <mxGeometry relative="1" as="geometry">
            <mxPoint x="850" y="1191" as="targetPoint" />
          </mxGeometry>
        </mxCell>
        <mxCell id="yMmMfw-yELfP6yZ7qOpB-59" value="Support" style="swimlane;fontStyle=2;align=center;verticalAlign=top;childLayout=stackLayout;horizontal=1;startSize=26;horizontalStack=0;resizeParent=1;resizeLast=0;collapsible=1;marginBottom=0;rounded=0;shadow=0;strokeWidth=1;fillColor=#21C0A5;strokeColor=#006658;fontColor=#5C5C5C;fontSize=14;" parent="WIyWlLk6GJQsqaUBKTNV-1" vertex="1">
          <mxGeometry x="260" y="850" width="215" height="290" as="geometry">
            <mxRectangle x="230" y="140" width="160" height="26" as="alternateBounds" />
          </mxGeometry>
        </mxCell>
        <mxCell id="yMmMfw-yELfP6yZ7qOpB-60" value="&lt;pre style=&quot;background-color: rgb(255, 255, 255); font-family: &amp;quot;jetbrains mono&amp;quot;, monospace; font-size: 32px;&quot;&gt;id&lt;br style=&quot;font-size: 32px;&quot;&gt;question&lt;br style=&quot;font-size: 32px;&quot;&gt;email&lt;br style=&quot;font-size: 32px;&quot;&gt;subject&lt;br style=&quot;font-size: 32px;&quot;&gt;text&lt;/pre&gt;" style="text;html=1;align=left;verticalAlign=middle;resizable=0;points=[];autosize=1;strokeColor=none;fontSize=32;fontColor=#5C5C5C;" parent="WIyWlLk6GJQsqaUBKTNV-1" vertex="1">
          <mxGeometry x="260" y="880" width="170" height="260" as="geometry" />
        </mxCell>
        <mxCell id="yMmMfw-yELfP6yZ7qOpB-61" value="Gallery" style="swimlane;fontStyle=2;align=center;verticalAlign=top;childLayout=stackLayout;horizontal=1;startSize=26;horizontalStack=0;resizeParent=1;resizeLast=0;collapsible=1;marginBottom=0;rounded=0;shadow=0;strokeWidth=1;fillColor=#21C0A5;strokeColor=#006658;fontColor=#5C5C5C;fontSize=14;" parent="WIyWlLk6GJQsqaUBKTNV-1" vertex="1">
          <mxGeometry x="50" y="1169" width="215" height="226" as="geometry">
            <mxRectangle x="230" y="140" width="160" height="26" as="alternateBounds" />
          </mxGeometry>
        </mxCell>
        <mxCell id="yMmMfw-yELfP6yZ7qOpB-62" value="&lt;pre style=&quot;background-color: rgb(255 , 255 , 255) ; font-family: &amp;#34;jetbrains mono&amp;#34; , monospace ; font-size: 34px&quot;&gt;id&lt;br style=&quot;font-size: 34px&quot;&gt;name&lt;br style=&quot;font-size: 34px&quot;&gt;data&lt;/pre&gt;" style="text;html=1;align=left;verticalAlign=middle;resizable=0;points=[];autosize=1;strokeColor=none;fontSize=34;fontColor=#5C5C5C;" parent="yMmMfw-yELfP6yZ7qOpB-61" vertex="1">
          <mxGeometry y="26" width="215" height="200" as="geometry" />
        </mxCell>
        <mxCell id="yMmMfw-yELfP6yZ7qOpB-64" value="VideoGallery" style="swimlane;fontStyle=2;align=center;verticalAlign=top;childLayout=stackLayout;horizontal=1;startSize=26;horizontalStack=0;resizeParent=1;resizeLast=0;collapsible=1;marginBottom=0;rounded=0;shadow=0;strokeWidth=1;fillColor=#21C0A5;strokeColor=#006658;fontColor=#5C5C5C;fontSize=14;" parent="WIyWlLk6GJQsqaUBKTNV-1" vertex="1">
          <mxGeometry x="330" y="1220" width="215" height="226" as="geometry">
            <mxRectangle x="230" y="140" width="160" height="26" as="alternateBounds" />
          </mxGeometry>
        </mxCell>
        <mxCell id="yMmMfw-yELfP6yZ7qOpB-65" value="&lt;pre style=&quot;background-color: rgb(255 , 255 , 255) ; font-family: &amp;#34;jetbrains mono&amp;#34; , monospace ; font-size: 34px&quot;&gt;id&lt;br style=&quot;font-size: 34px&quot;&gt;name&lt;br style=&quot;font-size: 34px&quot;&gt;link&lt;/pre&gt;" style="text;html=1;align=left;verticalAlign=middle;resizable=0;points=[];autosize=1;strokeColor=none;fontSize=34;fontColor=#5C5C5C;" parent="yMmMfw-yELfP6yZ7qOpB-64" vertex="1">
          <mxGeometry y="26" width="215" height="200" as="geometry" />
        </mxCell>
        <mxCell id="yMmMfw-yELfP6yZ7qOpB-68" value="TableResult" style="swimlane;fontStyle=2;align=center;verticalAlign=top;childLayout=stackLayout;horizontal=1;startSize=26;horizontalStack=0;resizeParent=1;resizeLast=0;collapsible=1;marginBottom=0;rounded=0;shadow=0;strokeWidth=1;fillColor=#21C0A5;strokeColor=#006658;fontColor=#5C5C5C;fontSize=14;" parent="WIyWlLk6GJQsqaUBKTNV-1" vertex="1">
          <mxGeometry x="90" y="1470" width="215" height="286" as="geometry">
            <mxRectangle x="230" y="140" width="160" height="26" as="alternateBounds" />
          </mxGeometry>
        </mxCell>
        <mxCell id="yMmMfw-yELfP6yZ7qOpB-69" value="&lt;pre style=&quot;background-color: rgb(255 , 255 , 255) ; font-family: &amp;#34;jetbrains mono&amp;#34; , monospace ; font-size: 27px&quot;&gt;&lt;pre style=&quot;font-family: &amp;#34;jetbrains mono&amp;#34; , monospace&quot;&gt;id&lt;br&gt;position&lt;br&gt;team&lt;br&gt;point&lt;br&gt;match&lt;font color=&quot;#080808&quot;&gt;&lt;br&gt;&lt;/font&gt;&lt;/pre&gt;&lt;/pre&gt;" style="text;html=1;align=left;verticalAlign=middle;resizable=0;points=[];autosize=1;strokeColor=none;fontSize=34;fontColor=#5C5C5C;" parent="yMmMfw-yELfP6yZ7qOpB-68" vertex="1">
          <mxGeometry y="26" width="215" height="260" as="geometry" />
        </mxCell>
        <mxCell id="yMmMfw-yELfP6yZ7qOpB-70" value="TableScore" style="swimlane;fontStyle=2;align=center;verticalAlign=top;childLayout=stackLayout;horizontal=1;startSize=26;horizontalStack=0;resizeParent=1;resizeLast=0;collapsible=1;marginBottom=0;rounded=0;shadow=0;strokeWidth=1;fillColor=#21C0A5;strokeColor=#006658;fontColor=#5C5C5C;fontSize=14;" parent="WIyWlLk6GJQsqaUBKTNV-1" vertex="1">
          <mxGeometry x="430" y="1480" width="175" height="296" as="geometry">
            <mxRectangle x="230" y="140" width="160" height="26" as="alternateBounds" />
          </mxGeometry>
        </mxCell>
        <mxCell id="yMmMfw-yELfP6yZ7qOpB-71" value="&lt;pre style=&quot;background-color: rgb(255 , 255 , 255) ; font-family: &amp;#34;jetbrains mono&amp;#34; , monospace ; font-size: 27px&quot;&gt;&lt;pre style=&quot;font-family: &amp;#34;jetbrains mono&amp;#34; , monospace ; font-size: 29px&quot;&gt;&lt;pre style=&quot;font-family: &amp;#34;jetbrains mono&amp;#34; , monospace&quot;&gt;id&lt;br&gt;date&lt;br&gt;team1&lt;br&gt;team2&lt;br&gt;score&lt;/pre&gt;&lt;/pre&gt;&lt;/pre&gt;" style="text;html=1;align=left;verticalAlign=middle;resizable=0;points=[];autosize=1;strokeColor=none;fontSize=34;fontColor=#5C5C5C;" parent="yMmMfw-yELfP6yZ7qOpB-70" vertex="1">
          <mxGeometry y="26" width="175" height="270" as="geometry" />
        </mxCell>
        <mxCell id="yMmMfw-yELfP6yZ7qOpB-75" style="edgeStyle=orthogonalEdgeStyle;curved=0;rounded=1;sketch=0;orthogonalLoop=1;jettySize=auto;html=1;fontSize=34;fontColor=#5C5C5C;strokeColor=#006658;fillColor=#21C0A5;" parent="WIyWlLk6GJQsqaUBKTNV-1" source="yMmMfw-yELfP6yZ7qOpB-72" edge="1">
          <mxGeometry relative="1" as="geometry">
            <mxPoint x="250" y="1760" as="targetPoint" />
          </mxGeometry>
        </mxCell>
        <mxCell id="yMmMfw-yELfP6yZ7qOpB-72" value="Player" style="swimlane;fontStyle=2;align=center;verticalAlign=top;childLayout=stackLayout;horizontal=1;startSize=26;horizontalStack=0;resizeParent=1;resizeLast=0;collapsible=1;marginBottom=0;rounded=0;shadow=0;strokeWidth=1;fillColor=#21C0A5;strokeColor=#006658;fontColor=#5C5C5C;fontSize=14;" parent="WIyWlLk6GJQsqaUBKTNV-1" vertex="1">
          <mxGeometry x="80" y="1860" width="340" height="216" as="geometry">
            <mxRectangle x="230" y="140" width="160" height="26" as="alternateBounds" />
          </mxGeometry>
        </mxCell>
        <mxCell id="yMmMfw-yELfP6yZ7qOpB-73" value="&lt;pre style=&quot;background-color: rgb(255 , 255 , 255) ; font-family: &amp;#34;jetbrains mono&amp;#34; , monospace ; font-size: 27px&quot;&gt;&lt;pre style=&quot;font-family: &amp;#34;jetbrains mono&amp;#34; , monospace ; font-size: 29px&quot;&gt;&lt;pre style=&quot;font-family: &amp;#34;jetbrains mono&amp;#34; , monospace ; font-size: 21px&quot;&gt;&lt;pre style=&quot;font-family: &amp;#34;jetbrains mono&amp;#34; , monospace&quot;&gt;id&lt;br&gt;full_name&lt;br&gt;table_result_id&lt;/pre&gt;&lt;/pre&gt;&lt;/pre&gt;&lt;/pre&gt;" style="text;html=1;align=left;verticalAlign=middle;resizable=0;points=[];autosize=1;strokeColor=none;fontSize=34;fontColor=#5C5C5C;" parent="yMmMfw-yELfP6yZ7qOpB-72" vertex="1">
          <mxGeometry y="26" width="340" height="190" as="geometry" />
        </mxCell>
        <mxCell id="yMmMfw-yELfP6yZ7qOpB-74" style="edgeStyle=orthogonalEdgeStyle;curved=0;rounded=1;sketch=0;orthogonalLoop=1;jettySize=auto;html=1;fontSize=34;fontColor=#5C5C5C;strokeColor=#006658;fillColor=#21C0A5;" parent="WIyWlLk6GJQsqaUBKTNV-1" source="yMmMfw-yELfP6yZ7qOpB-69" edge="1">
          <mxGeometry relative="1" as="geometry">
            <mxPoint x="197.5" y="1840" as="targetPoint" />
          </mxGeometry>
        </mxCell>
        <mxCell id="6QDNvO3__eCwzw4dHllG-1" value="QueueOpponent" style="swimlane;fontStyle=2;align=center;verticalAlign=top;childLayout=stackLayout;horizontal=1;startSize=26;horizontalStack=0;resizeParent=1;resizeLast=0;collapsible=1;marginBottom=0;rounded=0;shadow=0;strokeWidth=1;fillColor=#21C0A5;strokeColor=#006658;fontColor=#5C5C5C;" vertex="1" parent="WIyWlLk6GJQsqaUBKTNV-1">
          <mxGeometry x="960" y="80" width="270" height="350" as="geometry">
            <mxRectangle x="230" y="140" width="160" height="26" as="alternateBounds" />
          </mxGeometry>
        </mxCell>
        <mxCell id="6QDNvO3__eCwzw4dHllG-2" value="id&lt;br&gt;queue_name&lt;br style=&quot;font-size: 26px&quot;&gt;queue_email&lt;br style=&quot;font-size: 26px&quot;&gt;queue_phone&lt;br style=&quot;font-size: 26px&quot;&gt;queue_category&lt;br style=&quot;font-size: 26px&quot;&gt;queue_city&lt;br style=&quot;font-size: 26px&quot;&gt;queue_district&lt;br style=&quot;font-size: 26px&quot;&gt;queue_date&lt;br style=&quot;font-size: 26px&quot;&gt;queue_accept&amp;nbsp;&lt;br style=&quot;font-size: 26px&quot;&gt;queue_message" style="text;whiteSpace=wrap;html=1;fontSize=26;fontColor=#5C5C5C;" vertex="1" parent="6QDNvO3__eCwzw4dHllG-1">
          <mxGeometry y="26" width="270" height="154" as="geometry" />
        </mxCell>
        <mxCell id="6QDNvO3__eCwzw4dHllG-3" value="" style="curved=1;endArrow=classic;html=1;" edge="1" parent="WIyWlLk6GJQsqaUBKTNV-1">
          <mxGeometry width="50" height="50" relative="1" as="geometry">
            <mxPoint x="940" y="270" as="sourcePoint" />
            <mxPoint x="440" y="750" as="targetPoint" />
            <Array as="points">
              <mxPoint x="700" y="370" />
            </Array>
          </mxGeometry>
        </mxCell>
        <mxCell id="6QDNvO3__eCwzw4dHllG-4" value="UserAccount" style="swimlane;fontStyle=2;align=center;verticalAlign=top;childLayout=stackLayout;horizontal=1;startSize=26;horizontalStack=0;resizeParent=1;resizeLast=0;collapsible=1;marginBottom=0;rounded=0;shadow=0;strokeWidth=1;fillColor=#21C0A5;strokeColor=#006658;fontColor=#5C5C5C;" vertex="1" parent="WIyWlLk6GJQsqaUBKTNV-1">
          <mxGeometry x="90" y="2206" width="220" height="326" as="geometry">
            <mxRectangle x="230" y="140" width="160" height="26" as="alternateBounds" />
          </mxGeometry>
        </mxCell>
        <mxCell id="6QDNvO3__eCwzw4dHllG-5" value="id&lt;br style=&quot;font-size: 22px;&quot;&gt;    name&lt;br style=&quot;font-size: 22px;&quot;&gt;    email&lt;br style=&quot;font-size: 22px;&quot;&gt;    password&lt;br style=&quot;font-size: 22px;&quot;&gt;    active&lt;br style=&quot;font-size: 22px;&quot;&gt;    remember&lt;br style=&quot;font-size: 22px;&quot;&gt;    registered_on&lt;br style=&quot;font-size: 22px;&quot;&gt;    admin&lt;br style=&quot;font-size: 22px;&quot;&gt;    confirmed&lt;br style=&quot;font-size: 22px;&quot;&gt;    confirmed_on" style="text;whiteSpace=wrap;html=1;fontSize=22;fontFamily=Courier New;fontColor=#5C5C5C;" vertex="1" parent="6QDNvO3__eCwzw4dHllG-4">
          <mxGeometry y="26" width="220" height="300" as="geometry" />
        </mxCell>
        <mxCell id="6QDNvO3__eCwzw4dHllG-6" style="edgeStyle=orthogonalEdgeStyle;curved=0;rounded=1;sketch=0;orthogonalLoop=1;jettySize=auto;html=1;entryX=0.87;entryY=-0.009;entryDx=0;entryDy=0;entryPerimeter=0;fontSize=26;fontColor=#5C5C5C;strokeColor=#006658;fillColor=#21C0A5;" edge="1" parent="WIyWlLk6GJQsqaUBKTNV-1" source="6QDNvO3__eCwzw4dHllG-8" target="6QDNvO3__eCwzw4dHllG-10">
          <mxGeometry relative="1" as="geometry" />
        </mxCell>
        <mxCell id="6QDNvO3__eCwzw4dHllG-7" style="edgeStyle=orthogonalEdgeStyle;curved=0;rounded=1;sketch=0;orthogonalLoop=1;jettySize=auto;html=1;fontSize=26;fontColor=#5C5C5C;strokeColor=#006658;fillColor=#21C0A5;" edge="1" parent="WIyWlLk6GJQsqaUBKTNV-1" source="6QDNvO3__eCwzw4dHllG-8">
          <mxGeometry relative="1" as="geometry">
            <mxPoint x="340" y="2306" as="targetPoint" />
          </mxGeometry>
        </mxCell>
        <mxCell id="6QDNvO3__eCwzw4dHllG-8" value="UserOpponent" style="swimlane;fontStyle=2;align=center;verticalAlign=top;childLayout=stackLayout;horizontal=1;startSize=26;horizontalStack=0;resizeParent=1;resizeLast=0;collapsible=1;marginBottom=0;rounded=0;shadow=0;strokeWidth=1;fillColor=#21C0A5;strokeColor=#006658;fontColor=#5C5C5C;" vertex="1" parent="WIyWlLk6GJQsqaUBKTNV-1">
          <mxGeometry x="475" y="2237.5" width="210" height="263" as="geometry">
            <mxRectangle x="230" y="140" width="160" height="26" as="alternateBounds" />
          </mxGeometry>
        </mxCell>
        <mxCell id="6QDNvO3__eCwzw4dHllG-9" value="&lt;div style=&quot;text-align: left ; font-size: 22px&quot;&gt;&lt;font style=&quot;font-size: 22px&quot;&gt;&amp;nbsp; &amp;nbsp; id&lt;/font&gt;&lt;/div&gt;&lt;div style=&quot;text-align: left ; font-size: 22px&quot;&gt;&lt;font style=&quot;font-size: 22px&quot;&gt;&amp;nbsp; &amp;nbsp; opponent_category&lt;/font&gt;&lt;/div&gt;&lt;div style=&quot;text-align: left ; font-size: 22px&quot;&gt;&lt;font style=&quot;font-size: 22px&quot;&gt;&amp;nbsp; &amp;nbsp; opponent_city&lt;/font&gt;&lt;/div&gt;&lt;div style=&quot;text-align: left ; font-size: 22px&quot;&gt;&lt;font style=&quot;font-size: 22px&quot;&gt;&amp;nbsp; &amp;nbsp; opponent_district&lt;/font&gt;&lt;/div&gt;&lt;div style=&quot;text-align: left ; font-size: 22px&quot;&gt;&lt;font style=&quot;font-size: 22px&quot;&gt;&amp;nbsp; &amp;nbsp; opponent_date&lt;/font&gt;&lt;/div&gt;&lt;div style=&quot;text-align: left ; font-size: 22px&quot;&gt;&lt;font style=&quot;font-size: 22px&quot;&gt;&amp;nbsp; &amp;nbsp; opponent_phone&lt;/font&gt;&lt;/div&gt;&lt;div style=&quot;text-align: left ; font-size: 22px&quot;&gt;&lt;font style=&quot;font-size: 22px&quot;&gt;&amp;nbsp; &amp;nbsp; user_account_id&lt;/font&gt;&lt;/div&gt;&lt;div style=&quot;text-align: left ; font-size: 22px&quot;&gt;&lt;font style=&quot;font-size: 22px&quot;&gt;&amp;nbsp;&amp;nbsp;&lt;/font&gt;&lt;/div&gt;&lt;div style=&quot;text-align: left ; font-size: 22px&quot;&gt;&lt;font style=&quot;font-size: 22px&quot;&gt;&amp;nbsp; &amp;nbsp;&lt;/font&gt;&lt;/div&gt;&lt;div style=&quot;text-align: left&quot;&gt;&lt;br&gt;&lt;/div&gt;" style="text;html=1;align=center;verticalAlign=middle;resizable=0;points=[];autosize=1;strokeColor=none;fontColor=#5C5C5C;" vertex="1" parent="WIyWlLk6GJQsqaUBKTNV-1">
          <mxGeometry x="455" y="2331" width="230" height="150" as="geometry" />
        </mxCell>
        <mxCell id="6QDNvO3__eCwzw4dHllG-10" value="OfferOpponent" style="swimlane;fontStyle=2;align=center;verticalAlign=top;childLayout=stackLayout;horizontal=1;startSize=26;horizontalStack=0;resizeParent=1;resizeLast=0;collapsible=1;marginBottom=0;rounded=0;shadow=0;strokeWidth=1;fillColor=#21C0A5;strokeColor=#006658;fontColor=#5C5C5C;" vertex="1" parent="WIyWlLk6GJQsqaUBKTNV-1">
          <mxGeometry x="184" y="2606" width="270" height="350" as="geometry">
            <mxRectangle x="230" y="140" width="160" height="26" as="alternateBounds" />
          </mxGeometry>
        </mxCell>
        <mxCell id="6QDNvO3__eCwzw4dHllG-11" value="id&lt;br&gt;offer_name&lt;br style=&quot;font-size: 26px&quot;&gt;    offer_email&lt;br style=&quot;font-size: 26px&quot;&gt;    offer_phone&lt;br style=&quot;font-size: 26px&quot;&gt;    offer_category&lt;br style=&quot;font-size: 26px&quot;&gt;    offer_city&lt;br style=&quot;font-size: 26px&quot;&gt;    offer_district&lt;br style=&quot;font-size: 26px&quot;&gt;    offer_date&lt;br style=&quot;font-size: 26px&quot;&gt;    offer_accept&amp;nbsp;&lt;br style=&quot;font-size: 26px&quot;&gt;    offer_message" style="text;whiteSpace=wrap;html=1;fontSize=26;fontColor=#5C5C5C;" vertex="1" parent="6QDNvO3__eCwzw4dHllG-10">
          <mxGeometry y="26" width="270" height="154" as="geometry" />
        </mxCell>
        <mxCell id="6QDNvO3__eCwzw4dHllG-12" style="edgeStyle=orthogonalEdgeStyle;curved=0;rounded=1;sketch=0;orthogonalLoop=1;jettySize=auto;html=1;fontSize=26;fontColor=#5C5C5C;strokeColor=#006658;fillColor=#21C0A5;" edge="1" parent="WIyWlLk6GJQsqaUBKTNV-1" source="6QDNvO3__eCwzw4dHllG-11">
          <mxGeometry relative="1" as="geometry">
            <mxPoint x="140" y="2556" as="targetPoint" />
          </mxGeometry>
        </mxCell>
        <mxCell id="6QDNvO3__eCwzw4dHllG-13" style="edgeStyle=orthogonalEdgeStyle;curved=0;rounded=1;sketch=0;orthogonalLoop=1;jettySize=auto;html=1;fontSize=26;fontColor=#5C5C5C;strokeColor=#006658;fillColor=#21C0A5;" edge="1" parent="WIyWlLk6GJQsqaUBKTNV-1" source="6QDNvO3__eCwzw4dHllG-5">
          <mxGeometry relative="1" as="geometry">
            <mxPoint x="270" y="2590" as="targetPoint" />
          </mxGeometry>
        </mxCell>
        <mxCell id="6QDNvO3__eCwzw4dHllG-14" style="edgeStyle=orthogonalEdgeStyle;curved=0;rounded=1;sketch=0;orthogonalLoop=1;jettySize=auto;html=1;fontSize=26;fontColor=#5C5C5C;strokeColor=#006658;fillColor=#21C0A5;" edge="1" parent="WIyWlLk6GJQsqaUBKTNV-1" source="6QDNvO3__eCwzw4dHllG-11">
          <mxGeometry relative="1" as="geometry">
            <mxPoint x="590" y="2546" as="targetPoint" />
          </mxGeometry>
        </mxCell>
        <mxCell id="6QDNvO3__eCwzw4dHllG-15" style="edgeStyle=orthogonalEdgeStyle;curved=0;rounded=1;sketch=0;orthogonalLoop=1;jettySize=auto;html=1;fontSize=26;fontColor=#5C5C5C;strokeColor=#006658;fillColor=#21C0A5;" edge="1" parent="WIyWlLk6GJQsqaUBKTNV-1" source="6QDNvO3__eCwzw4dHllG-5">
          <mxGeometry relative="1" as="geometry">
            <mxPoint x="400" y="2382" as="targetPoint" />
          </mxGeometry>
        </mxCell>
        <mxCell id="6QDNvO3__eCwzw4dHllG-16" value="Role" style="swimlane;fontStyle=2;align=center;verticalAlign=top;childLayout=stackLayout;horizontal=1;startSize=26;horizontalStack=0;resizeParent=1;resizeLast=0;collapsible=1;marginBottom=0;rounded=0;shadow=0;strokeWidth=1;fillColor=#21C0A5;strokeColor=#006658;fontColor=#5C5C5C;labelBorderColor=none;" vertex="1" parent="WIyWlLk6GJQsqaUBKTNV-1">
          <mxGeometry x="700" y="2120" width="210" height="166" as="geometry">
            <mxRectangle x="230" y="140" width="160" height="26" as="alternateBounds" />
          </mxGeometry>
        </mxCell>
        <mxCell id="6QDNvO3__eCwzw4dHllG-17" value="&lt;pre style=&quot;font-family: &amp;quot;jetbrains mono&amp;quot;, monospace; font-size: 21px;&quot;&gt;id&lt;br&gt;name&lt;br&gt;description&lt;/pre&gt;" style="text;html=1;align=left;verticalAlign=middle;resizable=0;points=[];autosize=1;strokeColor=none;fontSize=26;fontColor=#5C5C5C;" vertex="1" parent="6QDNvO3__eCwzw4dHllG-16">
          <mxGeometry y="26" width="210" height="140" as="geometry" />
        </mxCell>
        <mxCell id="6QDNvO3__eCwzw4dHllG-18" style="edgeStyle=orthogonalEdgeStyle;curved=0;rounded=1;sketch=0;orthogonalLoop=1;jettySize=auto;html=1;fontSize=26;fontColor=#5C5C5C;strokeColor=#006658;fillColor=#21C0A5;" edge="1" parent="WIyWlLk6GJQsqaUBKTNV-1" source="6QDNvO3__eCwzw4dHllG-17">
          <mxGeometry relative="1" as="geometry">
            <mxPoint x="330" y="2216" as="targetPoint" />
          </mxGeometry>
        </mxCell>
        <mxCell id="6QDNvO3__eCwzw4dHllG-19" value="User" style="swimlane;fontStyle=2;align=center;verticalAlign=top;childLayout=stackLayout;horizontal=1;startSize=26;horizontalStack=0;resizeParent=1;resizeLast=0;collapsible=1;marginBottom=0;rounded=0;shadow=0;strokeWidth=1;fillColor=#21C0A5;strokeColor=#006658;fontColor=#5C5C5C;" vertex="1" parent="WIyWlLk6GJQsqaUBKTNV-1">
          <mxGeometry x="700" y="2606" width="300" height="380" as="geometry">
            <mxRectangle x="230" y="140" width="160" height="26" as="alternateBounds" />
          </mxGeometry>
        </mxCell>
        <mxCell id="6QDNvO3__eCwzw4dHllG-20" value="id&lt;br style=&quot;font-size: 29px;&quot;&gt;    full_name&lt;br style=&quot;font-size: 29px;&quot;&gt;    email&lt;br style=&quot;font-size: 29px;&quot;&gt;    phone&lt;br style=&quot;font-size: 29px;&quot;&gt;    address&lt;br style=&quot;font-size: 29px;&quot;&gt;    address2&lt;br style=&quot;font-size: 29px;&quot;&gt;    city&lt;br style=&quot;font-size: 29px;&quot;&gt;    state&lt;br style=&quot;font-size: 29px;&quot;&gt;    zip_code&lt;br style=&quot;font-size: 29px;&quot;&gt;    order_id" style="text;whiteSpace=wrap;html=1;fontSize=29;fontColor=#5C5C5C;" vertex="1" parent="6QDNvO3__eCwzw4dHllG-19">
          <mxGeometry y="26" width="300" height="330" as="geometry" />
        </mxCell>
        <mxCell id="6QDNvO3__eCwzw4dHllG-21" value="Order" style="swimlane;fontStyle=2;align=center;verticalAlign=top;childLayout=stackLayout;horizontal=1;startSize=26;horizontalStack=0;resizeParent=1;resizeLast=0;collapsible=1;marginBottom=0;rounded=0;shadow=0;strokeWidth=1;fillColor=#21C0A5;strokeColor=#006658;fontColor=#5C5C5C;" vertex="1" parent="WIyWlLk6GJQsqaUBKTNV-1">
          <mxGeometry x="1150" y="2676" width="300" height="380" as="geometry">
            <mxRectangle x="230" y="140" width="160" height="26" as="alternateBounds" />
          </mxGeometry>
        </mxCell>
        <mxCell id="6QDNvO3__eCwzw4dHllG-22" value="&lt;pre style=&quot;background-color: rgb(255, 255, 255); font-family: &amp;quot;jetbrains mono&amp;quot;, monospace; font-size: 30px;&quot;&gt;id&lt;br style=&quot;font-size: 30px;&quot;&gt;name_product&lt;br style=&quot;font-size: 30px;&quot;&gt;print&lt;br style=&quot;font-size: 30px;&quot;&gt;color&lt;br style=&quot;font-size: 30px;&quot;&gt;size&lt;br style=&quot;font-size: 30px;&quot;&gt;sex&lt;br style=&quot;font-size: 30px;&quot;&gt;quantity&lt;br style=&quot;font-size: 30px;&quot;&gt;order_total&lt;br style=&quot;font-size: 30px;&quot;&gt;&lt;/pre&gt;" style="text;whiteSpace=wrap;html=1;fontSize=30;fontColor=#5C5C5C;" vertex="1" parent="6QDNvO3__eCwzw4dHllG-21">
          <mxGeometry y="26" width="300" height="330" as="geometry" />
        </mxCell>
        <mxCell id="6QDNvO3__eCwzw4dHllG-23" style="edgeStyle=orthogonalEdgeStyle;curved=0;rounded=1;sketch=0;orthogonalLoop=1;jettySize=auto;html=1;fontSize=30;fontColor=#5C5C5C;strokeColor=#006658;fillColor=#21C0A5;" edge="1" parent="WIyWlLk6GJQsqaUBKTNV-1" source="6QDNvO3__eCwzw4dHllG-20">
          <mxGeometry relative="1" as="geometry">
            <mxPoint x="1130" y="2797" as="targetPoint" />
          </mxGeometry>
        </mxCell>
        <mxCell id="6QDNvO3__eCwzw4dHllG-24" style="edgeStyle=orthogonalEdgeStyle;curved=0;rounded=1;sketch=0;orthogonalLoop=1;jettySize=auto;html=1;fontSize=30;fontColor=#5C5C5C;strokeColor=#006658;fillColor=#21C0A5;" edge="1" parent="WIyWlLk6GJQsqaUBKTNV-1" source="6QDNvO3__eCwzw4dHllG-22">
          <mxGeometry relative="1" as="geometry">
            <mxPoint x="1010" y="2867" as="targetPoint" />
          </mxGeometry>
        </mxCell>
        <mxCell id="6QDNvO3__eCwzw4dHllG-25" value="Product&#xa;" style="swimlane;fontStyle=2;align=center;verticalAlign=top;childLayout=stackLayout;horizontal=1;startSize=26;horizontalStack=0;resizeParent=1;resizeLast=0;collapsible=1;marginBottom=0;rounded=0;shadow=0;strokeWidth=1;fillColor=#21C0A5;strokeColor=#006658;fontColor=#5C5C5C;" vertex="1" parent="WIyWlLk6GJQsqaUBKTNV-1">
          <mxGeometry x="665" y="3196" width="215" height="290" as="geometry">
            <mxRectangle x="230" y="140" width="160" height="26" as="alternateBounds" />
          </mxGeometry>
        </mxCell>
        <mxCell id="6QDNvO3__eCwzw4dHllG-26" style="edgeStyle=orthogonalEdgeStyle;curved=0;rounded=1;sketch=0;orthogonalLoop=1;jettySize=auto;html=1;fontSize=25;fontColor=#5C5C5C;strokeColor=#006658;fillColor=#21C0A5;" edge="1" parent="WIyWlLk6GJQsqaUBKTNV-1" source="6QDNvO3__eCwzw4dHllG-27">
          <mxGeometry relative="1" as="geometry">
            <mxPoint x="1010" y="3356" as="targetPoint" />
          </mxGeometry>
        </mxCell>
        <mxCell id="6QDNvO3__eCwzw4dHllG-27" value="id&lt;br&gt;    name&lt;br&gt;    price&lt;br&gt;    is_new&lt;br&gt;    add&lt;br&gt;    deleted" style="text;whiteSpace=wrap;html=1;fontSize=30;fontColor=#5C5C5C;" vertex="1" parent="WIyWlLk6GJQsqaUBKTNV-1">
          <mxGeometry x="680" y="3236" width="200" height="240" as="geometry" />
        </mxCell>
        <mxCell id="6QDNvO3__eCwzw4dHllG-28" value="TShirt" style="swimlane;fontStyle=2;align=center;verticalAlign=top;childLayout=stackLayout;horizontal=1;startSize=26;horizontalStack=0;resizeParent=1;resizeLast=0;collapsible=1;marginBottom=0;rounded=0;shadow=0;strokeWidth=1;fillColor=#21C0A5;strokeColor=#006658;fontColor=#5C5C5C;" vertex="1" parent="WIyWlLk6GJQsqaUBKTNV-1">
          <mxGeometry x="1020" y="3156" width="190" height="296" as="geometry">
            <mxRectangle x="230" y="140" width="160" height="26" as="alternateBounds" />
          </mxGeometry>
        </mxCell>
        <mxCell id="6QDNvO3__eCwzw4dHllG-29" value="&lt;pre style=&quot;background-color: rgb(255, 255, 255); font-family: &amp;quot;jetbrains mono&amp;quot;, monospace; font-size: 25px;&quot;&gt;id&lt;br style=&quot;font-size: 25px;&quot;&gt;name&lt;br style=&quot;font-size: 25px;&quot;&gt;color&lt;br style=&quot;font-size: 25px;&quot;&gt;size&lt;br style=&quot;font-size: 25px;&quot;&gt;sex&lt;br style=&quot;font-size: 25px;&quot;&gt;quantity&lt;br style=&quot;font-size: 25px;&quot;&gt;product_id&lt;/pre&gt;" style="text;html=1;align=left;verticalAlign=middle;resizable=0;points=[];autosize=1;strokeColor=none;fontSize=25;fontColor=#5C5C5C;" vertex="1" parent="6QDNvO3__eCwzw4dHllG-28">
          <mxGeometry y="26" width="190" height="270" as="geometry" />
        </mxCell>
        <mxCell id="6QDNvO3__eCwzw4dHllG-30" style="edgeStyle=orthogonalEdgeStyle;curved=0;rounded=1;sketch=0;orthogonalLoop=1;jettySize=auto;html=1;fontSize=25;fontColor=#5C5C5C;strokeColor=#006658;fillColor=#21C0A5;" edge="1" parent="WIyWlLk6GJQsqaUBKTNV-1" source="6QDNvO3__eCwzw4dHllG-29">
          <mxGeometry relative="1" as="geometry">
            <mxPoint x="890" y="3317" as="targetPoint" />
          </mxGeometry>
        </mxCell>
        <mxCell id="6QDNvO3__eCwzw4dHllG-31" value="Support" style="swimlane;fontStyle=2;align=center;verticalAlign=top;childLayout=stackLayout;horizontal=1;startSize=26;horizontalStack=0;resizeParent=1;resizeLast=0;collapsible=1;marginBottom=0;rounded=0;shadow=0;strokeWidth=1;fillColor=#21C0A5;strokeColor=#006658;fontColor=#5C5C5C;fontSize=14;" vertex="1" parent="WIyWlLk6GJQsqaUBKTNV-1">
          <mxGeometry x="300" y="2976" width="215" height="290" as="geometry">
            <mxRectangle x="230" y="140" width="160" height="26" as="alternateBounds" />
          </mxGeometry>
        </mxCell>
        <mxCell id="6QDNvO3__eCwzw4dHllG-32" value="&lt;pre style=&quot;background-color: rgb(255, 255, 255); font-family: &amp;quot;jetbrains mono&amp;quot;, monospace; font-size: 32px;&quot;&gt;id&lt;br style=&quot;font-size: 32px;&quot;&gt;question&lt;br style=&quot;font-size: 32px;&quot;&gt;email&lt;br style=&quot;font-size: 32px;&quot;&gt;subject&lt;br style=&quot;font-size: 32px;&quot;&gt;text&lt;/pre&gt;" style="text;html=1;align=left;verticalAlign=middle;resizable=0;points=[];autosize=1;strokeColor=none;fontSize=32;fontColor=#5C5C5C;" vertex="1" parent="WIyWlLk6GJQsqaUBKTNV-1">
          <mxGeometry x="300" y="3006" width="170" height="260" as="geometry" />
        </mxCell>
        <mxCell id="6QDNvO3__eCwzw4dHllG-33" value="Gallery" style="swimlane;fontStyle=2;align=center;verticalAlign=top;childLayout=stackLayout;horizontal=1;startSize=26;horizontalStack=0;resizeParent=1;resizeLast=0;collapsible=1;marginBottom=0;rounded=0;shadow=0;strokeWidth=1;fillColor=#21C0A5;strokeColor=#006658;fontColor=#5C5C5C;fontSize=14;" vertex="1" parent="WIyWlLk6GJQsqaUBKTNV-1">
          <mxGeometry x="90" y="3295" width="215" height="226" as="geometry">
            <mxRectangle x="230" y="140" width="160" height="26" as="alternateBounds" />
          </mxGeometry>
        </mxCell>
        <mxCell id="6QDNvO3__eCwzw4dHllG-34" value="&lt;pre style=&quot;background-color: rgb(255 , 255 , 255) ; font-family: &amp;#34;jetbrains mono&amp;#34; , monospace ; font-size: 34px&quot;&gt;id&lt;br style=&quot;font-size: 34px&quot;&gt;name&lt;br style=&quot;font-size: 34px&quot;&gt;data&lt;/pre&gt;" style="text;html=1;align=left;verticalAlign=middle;resizable=0;points=[];autosize=1;strokeColor=none;fontSize=34;fontColor=#5C5C5C;" vertex="1" parent="6QDNvO3__eCwzw4dHllG-33">
          <mxGeometry y="26" width="215" height="200" as="geometry" />
        </mxCell>
        <mxCell id="6QDNvO3__eCwzw4dHllG-35" value="VideoGallery" style="swimlane;fontStyle=2;align=center;verticalAlign=top;childLayout=stackLayout;horizontal=1;startSize=26;horizontalStack=0;resizeParent=1;resizeLast=0;collapsible=1;marginBottom=0;rounded=0;shadow=0;strokeWidth=1;fillColor=#21C0A5;strokeColor=#006658;fontColor=#5C5C5C;fontSize=14;" vertex="1" parent="WIyWlLk6GJQsqaUBKTNV-1">
          <mxGeometry x="370" y="3346" width="215" height="226" as="geometry">
            <mxRectangle x="230" y="140" width="160" height="26" as="alternateBounds" />
          </mxGeometry>
        </mxCell>
        <mxCell id="6QDNvO3__eCwzw4dHllG-36" value="&lt;pre style=&quot;background-color: rgb(255 , 255 , 255) ; font-family: &amp;#34;jetbrains mono&amp;#34; , monospace ; font-size: 34px&quot;&gt;id&lt;br style=&quot;font-size: 34px&quot;&gt;name&lt;br style=&quot;font-size: 34px&quot;&gt;link&lt;/pre&gt;" style="text;html=1;align=left;verticalAlign=middle;resizable=0;points=[];autosize=1;strokeColor=none;fontSize=34;fontColor=#5C5C5C;" vertex="1" parent="6QDNvO3__eCwzw4dHllG-35">
          <mxGeometry y="26" width="215" height="200" as="geometry" />
        </mxCell>
        <mxCell id="6QDNvO3__eCwzw4dHllG-37" value="TableResult" style="swimlane;fontStyle=2;align=center;verticalAlign=top;childLayout=stackLayout;horizontal=1;startSize=26;horizontalStack=0;resizeParent=1;resizeLast=0;collapsible=1;marginBottom=0;rounded=0;shadow=0;strokeWidth=1;fillColor=#21C0A5;strokeColor=#006658;fontColor=#5C5C5C;fontSize=14;" vertex="1" parent="WIyWlLk6GJQsqaUBKTNV-1">
          <mxGeometry x="130" y="3596" width="215" height="286" as="geometry">
            <mxRectangle x="230" y="140" width="160" height="26" as="alternateBounds" />
          </mxGeometry>
        </mxCell>
        <mxCell id="6QDNvO3__eCwzw4dHllG-38" value="&lt;pre style=&quot;background-color: rgb(255 , 255 , 255) ; font-family: &amp;#34;jetbrains mono&amp;#34; , monospace ; font-size: 27px&quot;&gt;&lt;pre style=&quot;font-family: &amp;#34;jetbrains mono&amp;#34; , monospace&quot;&gt;id&lt;br&gt;position&lt;br&gt;team&lt;br&gt;point&lt;br&gt;match&lt;font color=&quot;#080808&quot;&gt;&lt;br&gt;&lt;/font&gt;&lt;/pre&gt;&lt;/pre&gt;" style="text;html=1;align=left;verticalAlign=middle;resizable=0;points=[];autosize=1;strokeColor=none;fontSize=34;fontColor=#5C5C5C;" vertex="1" parent="6QDNvO3__eCwzw4dHllG-37">
          <mxGeometry y="26" width="215" height="260" as="geometry" />
        </mxCell>
        <mxCell id="6QDNvO3__eCwzw4dHllG-39" value="TableScore" style="swimlane;fontStyle=2;align=center;verticalAlign=top;childLayout=stackLayout;horizontal=1;startSize=26;horizontalStack=0;resizeParent=1;resizeLast=0;collapsible=1;marginBottom=0;rounded=0;shadow=0;strokeWidth=1;fillColor=#21C0A5;strokeColor=#006658;fontColor=#5C5C5C;fontSize=14;" vertex="1" parent="WIyWlLk6GJQsqaUBKTNV-1">
          <mxGeometry x="470" y="3606" width="175" height="296" as="geometry">
            <mxRectangle x="230" y="140" width="160" height="26" as="alternateBounds" />
          </mxGeometry>
        </mxCell>
        <mxCell id="6QDNvO3__eCwzw4dHllG-40" value="&lt;pre style=&quot;background-color: rgb(255 , 255 , 255) ; font-family: &amp;#34;jetbrains mono&amp;#34; , monospace ; font-size: 27px&quot;&gt;&lt;pre style=&quot;font-family: &amp;#34;jetbrains mono&amp;#34; , monospace ; font-size: 29px&quot;&gt;&lt;pre style=&quot;font-family: &amp;#34;jetbrains mono&amp;#34; , monospace&quot;&gt;id&lt;br&gt;date&lt;br&gt;team1&lt;br&gt;team2&lt;br&gt;score&lt;/pre&gt;&lt;/pre&gt;&lt;/pre&gt;" style="text;html=1;align=left;verticalAlign=middle;resizable=0;points=[];autosize=1;strokeColor=none;fontSize=34;fontColor=#5C5C5C;" vertex="1" parent="6QDNvO3__eCwzw4dHllG-39">
          <mxGeometry y="26" width="175" height="270" as="geometry" />
        </mxCell>
        <mxCell id="6QDNvO3__eCwzw4dHllG-41" style="edgeStyle=orthogonalEdgeStyle;curved=0;rounded=1;sketch=0;orthogonalLoop=1;jettySize=auto;html=1;fontSize=34;fontColor=#5C5C5C;strokeColor=#006658;fillColor=#21C0A5;" edge="1" parent="WIyWlLk6GJQsqaUBKTNV-1" source="6QDNvO3__eCwzw4dHllG-42">
          <mxGeometry relative="1" as="geometry">
            <mxPoint x="290" y="3886" as="targetPoint" />
          </mxGeometry>
        </mxCell>
        <mxCell id="6QDNvO3__eCwzw4dHllG-42" value="Player" style="swimlane;fontStyle=2;align=center;verticalAlign=top;childLayout=stackLayout;horizontal=1;startSize=26;horizontalStack=0;resizeParent=1;resizeLast=0;collapsible=1;marginBottom=0;rounded=0;shadow=0;strokeWidth=1;fillColor=#21C0A5;strokeColor=#006658;fontColor=#5C5C5C;fontSize=14;" vertex="1" parent="WIyWlLk6GJQsqaUBKTNV-1">
          <mxGeometry x="120" y="3986" width="340" height="216" as="geometry">
            <mxRectangle x="230" y="140" width="160" height="26" as="alternateBounds" />
          </mxGeometry>
        </mxCell>
        <mxCell id="6QDNvO3__eCwzw4dHllG-43" value="&lt;pre style=&quot;background-color: rgb(255 , 255 , 255) ; font-family: &amp;#34;jetbrains mono&amp;#34; , monospace ; font-size: 27px&quot;&gt;&lt;pre style=&quot;font-family: &amp;#34;jetbrains mono&amp;#34; , monospace ; font-size: 29px&quot;&gt;&lt;pre style=&quot;font-family: &amp;#34;jetbrains mono&amp;#34; , monospace ; font-size: 21px&quot;&gt;&lt;pre style=&quot;font-family: &amp;#34;jetbrains mono&amp;#34; , monospace&quot;&gt;id&lt;br&gt;full_name&lt;br&gt;table_result_id&lt;/pre&gt;&lt;/pre&gt;&lt;/pre&gt;&lt;/pre&gt;" style="text;html=1;align=left;verticalAlign=middle;resizable=0;points=[];autosize=1;strokeColor=none;fontSize=34;fontColor=#5C5C5C;" vertex="1" parent="6QDNvO3__eCwzw4dHllG-42">
          <mxGeometry y="26" width="340" height="190" as="geometry" />
        </mxCell>
        <mxCell id="6QDNvO3__eCwzw4dHllG-44" style="edgeStyle=orthogonalEdgeStyle;curved=0;rounded=1;sketch=0;orthogonalLoop=1;jettySize=auto;html=1;fontSize=34;fontColor=#5C5C5C;strokeColor=#006658;fillColor=#21C0A5;" edge="1" parent="WIyWlLk6GJQsqaUBKTNV-1" source="6QDNvO3__eCwzw4dHllG-38">
          <mxGeometry relative="1" as="geometry">
            <mxPoint x="237.5" y="3966" as="targetPoint" />
          </mxGeometry>
        </mxCell>
      </root>
    </mxGraphModel>
  </diagram>
</mxfile>
